<?xml version="1.0"?>
<svg xmlns="http://www.w3.org/2000/svg" viewBox="0 0 64 64" width="512" height="512"><path d="m53.06 45.65 2.61-14.38a3.43375 3.43375 0 0 1 3.14-3.27 2.92317 2.92317 0 0 1 2.24 1.12 4.26708 4.26708 0 0 1 .93 2.71l.02 17.67a7.464 7.464 0 0 1 -2.97 6.21l-7.03 4.29v2h-10v-11l7.43-5.78a2.59581 2.59581 0 0 1 3.16-.02 2.88612 2.88612 0 0 1 .47.45z" fill="#b0c7f4"/><path d="m10.85964 45.65-2.61-14.38a3.43375 3.43375 0 0 0 -3.14-3.27 2.92317 2.92317 0 0 0 -2.24 1.12 4.26708 4.26708 0 0 0 -.93 2.71l-.02 17.67a7.464 7.464 0 0 0 2.97 6.21l7.03 4.29v2h10v-11l-7.43-5.78a2.59581 2.59581 0 0 0 -3.16-.02 2.88612 2.88612 0 0 0 -.47.45z" fill="#b0c7f4"/><path d="m21 12h22v22h-22z" fill="#21c7ed"/><circle cx="32" cy="23" fill="#92ddea" r="7"/><path d="m32.063 44h-.063a21.15915 21.15915 0 0 1 -4.02832-.38623l.38184-1.96289a19.1916 19.1916 0 0 0 3.64648.34912zm4.0957-.41211-.39356-1.96089a18.88416 18.88416 0 0 0 3.55761-1.08886l.77149 1.84472a20.83857 20.83857 0 0 1 -3.93555 1.20503zm-12.12988-1.1543a20.97783 20.97783 0 0 1 -3.63428-1.9292l1.10645-1.666a19.03348 19.03348 0 0 0 3.28759 1.7456zm19.688-2.00293-1.11719-1.65918a19.10447 19.10447 0 0 0 2.87107-2.37158l1.418 1.41016a21.11682 21.11682 0 0 1 -3.1719 2.6206zm-26.51125-2.52685a21.14388 21.14388 0 0 1 -2.62354-3.169l1.65723-1.11914a19.16967 19.16967 0 0 0 2.37549 2.86914zm32.28662-3.27981-1.665-1.10839a18.9329 18.9329 0 0 0 1.749-3.28565l1.84961.76172a20.99944 20.99944 0 0 1 -1.93361 3.63232zm-36.86719-3.50925a20.92959 20.92959 0 0 1 -1.209-3.93409l1.96-.39648a18.91741 18.91741 0 0 0 1.09375 3.55713zm39.98486-4.06495-1.96286-.3828a19.18514 19.18514 0 0 0 .353-3.667l2-.042v.042a21.19577 21.19577 0 0 1 -.39014 4.0498zm-41.60986-3.9648v-.085a21.18081 21.18081 0 0 1 .39893-4.09326l1.96191.38769a19.18941 19.18941 0 0 0 -.36084 3.70557zm39.63135-3.82959a18.92075 18.92075 0 0 0 -1.08545-3.55961l1.8457-.76953a20.88972 20.88972 0 0 1 1.20069 3.937zm-36.1919-3.52295-1.84765-.76566a21.05388 21.05388 0 0 1 1.94091-3.62842l1.66309 1.11133a19.02964 19.02964 0 0 0 -1.75635 3.28271zm33.34326-3.31446a19.14644 19.14644 0 0 0 -2.36914-2.87451l1.41211-1.416a21.17405 21.17405 0 0 1 2.61719 3.17432zm-29.2246-2.8457-1.415-1.41407a21.17775 21.17775 0 0 1 3.17724-2.61279l1.11426 1.66113a19.12968 19.12968 0 0 0 -2.8765 2.3657zm23.97412-2.38919a18.9743 18.9743 0 0 0 -3.28369-1.752l.76367-1.84863a21.01258 21.01258 0 0 1 3.63037 1.93752zm-17.81836-1.73633-.76758-1.84668a20.903 20.903 0 0 1 3.938-1.19678l.38965 1.96191a18.904 18.904 0 0 0 -3.56007 1.08155zm10.97213-1.08936a19.13717 19.13717 0 0 0 -3.686-.35742l-.021-2h.021a21.18455 21.18455 0 0 1 4.07178.39453z" fill="#ffd700"/><path d="m32 16 1.652 4.966h5.348l-4.326 3.068 1.652 4.966-4.326-3.069-4.326 3.069 1.652-4.966-4.326-3.068h5.348z" fill="#f4393d"/><g fill="#5a93ed"><path d="m17.483 53.98406-6.47528-4.5354a3.17064 3.17064 0 0 1 -.11383-3.83258 2.32784 2.32784 0 0 0 -.32648.33075 3.17093 3.17093 0 0 0 .07422 3.89343l6.47528 4.5354"/><path d="m46.35192 53.96032 6.47529-4.5354a3.17066 3.17066 0 0 0 .11383-3.83258 2.32725 2.32725 0 0 1 .32647.33075 3.17093 3.17093 0 0 1 -.07422 3.89343l-6.47529 4.5354"/></g></svg>
