<?xml version="1.0" encoding="iso-8859-1"?>
<!-- Generator: Adobe Illustrator 19.0.0, SVG Export Plug-In . SVG Version: 6.00 Build 0)  -->
<svg version="1.1" id="Layer_1" xmlns="http://www.w3.org/2000/svg" xmlns:xlink="http://www.w3.org/1999/xlink" x="0px" y="0px"
	 viewBox="0 0 504.122 504.122" style="enable-background:new 0 0 504.122 504.122;" xml:space="preserve">
<path style="fill:#FF4A03;" d="M156.028,202.386L30.171,328.228c-40.227,40.227-40.227,105.496,0,145.723
	s105.464,40.227,145.715-0.016l125.818-125.834L156.028,202.386z"/>
<path style="fill:#0793D1;" d="M348.083,301.722L473.917,175.88c40.267-40.227,40.267-105.48,0.039-145.707
	c-40.259-40.227-105.488-40.227-145.723,0L202.4,156.015L348.083,301.722z"/>
<path style="fill:#FF8206;" d="M225.888,272.286l-69.868-69.9L30.171,328.228c-26.325,26.34-35.304,63.354-27.175,97.075
	c33.729,8.137,70.743-0.859,97.067-27.199L225.888,272.286z"/>
<path style="fill:#20BCF2;" d="M328.233,30.173L202.4,156.015l69.876,69.884l125.826-125.834
	c26.348-26.325,35.344-63.338,27.215-97.067C391.587-5.147,354.574,3.84,328.233,30.173z"/>
<g>
</g>
<g>
</g>
<g>
</g>
<g>
</g>
<g>
</g>
<g>
</g>
<g>
</g>
<g>
</g>
<g>
</g>
<g>
</g>
<g>
</g>
<g>
</g>
<g>
</g>
<g>
</g>
<g>
</g>
</svg>
