<?xml version="1.0"?>
<svg xmlns="http://www.w3.org/2000/svg" xmlns:xlink="http://www.w3.org/1999/xlink" version="1.1" id="Capa_1" x="0px" y="0px" viewBox="0 0 512 512" style="enable-background:new 0 0 512 512;" xml:space="preserve" width="512px" height="512px" class=""><g><circle style="fill:#0026FF" cx="256" cy="256" r="256" data-original="#54C0EB" class="" data-old_color="#002DFF"/><path style="fill:#FDF8F8" d="M256,448c-105.6,0-192-86.4-192-192S150.4,64,256,64s192,86.4,192,192S361.6,448,256,448z" data-original="#F2F2F2" class="" data-old_color="#FCF7F7"/><path style="fill:#FC2401" d="M256,384c-70.4,0-128-57.6-128-128s57.6-128,128-128s128,57.6,128,128S326.4,384,256,384z" data-original="#FF7058" class="" data-old_color="#FC2502"/><path style="fill:#CDD6E0;" d="M256,320c-35.2,0-64-28.8-64-64s28.8-64,64-64s64,28.8,64,64S291.2,320,256,320z" data-original="#CDD6E0"/><path style="fill:#FFEF00" d="M256,320c-35.2,0-64-28.8-64-64s28.8-64,64-64s64,28.8,64,64S291.2,320,256,320z" data-original="#FFD15C" class="active-path" data-old_color="#FFE000"/><path style="fill:#40596B;" d="M430.933,103.467l-156.8,156.8c-6.4,6.4-17.067,6.4-23.467,0l0,0c-6.4-6.4-6.4-17.067,0-23.467  L408.533,81.067c6.4-6.4,17.067-6.4,23.467,0l0,0C437.333,87.467,437.333,97.067,430.933,103.467z" data-original="#40596B" class=""/><polygon style="fill:#FC2401" points="445.867,66.133 395.733,116.267 395.733,50.133 445.867,0 " data-original="#FF7058" class="" data-old_color="#FC2502"/><polygon style="fill:#FB2000" points="461.867,116.267 512,66.133 445.867,66.133 395.733,116.267 " data-original="#F1543F" class="" data-old_color="#FB2001"/></g> </svg>
